<?xml version="1.0" encoding="utf-8"?>
<!-- Generator: Adobe Illustrator 17.1.0, SVG Export Plug-In . SVG Version: 6.00 Build 0)  -->
<svg version="1.2" baseProfile="tiny" id="Layer_1" xmlns:sketch="http://www.bohemiancoding.com/sketch/ns"
	 xmlns="http://www.w3.org/2000/svg" xmlns:xlink="http://www.w3.org/1999/xlink" x="0px" y="0px" viewBox="0 0 164 298"
	 xml:space="preserve">
<path fill="#F9F9F9" d="M83.4,32.1c-19.8,0-29.7,15.6-29.7,31.2c0,7.6,2.4,15.2,6.9,21c-7.8-6-11.8-15.9-11.8-25.9
	c0-15.6,9.9-31.2,29.7-31.2c9.4,0,17.2,3,22.6,10C96.2,33.7,90.2,32.1,83.4,32.1z M73.1,93.4c-2.1-0.7-4-1.7-5.7-2.8
	c-4.9,10.2-14.6,15.3-25.5,15.3c-7.8,0-15.4-2.6-21.6-7.7c6.8,8.2,16.4,12.5,26.4,12.5C58.3,110.6,68.6,104.9,73.1,93.4z
	 M97.5,239.7c4.6,5.7,7.4,12.9,7.4,20.7c0,18.1-14.8,32.5-32.9,32.5c-7.8,0-14.9-2.7-20.5-7.2c5.9,7.3,15,12,25.3,12
	c18.1,0,33-14.4,33-32.5C109.7,255,105,245.8,97.5,239.7z M145,26.6c11.3,13,13.4,29.3,13.4,41c0,67-64.3,73.2-71.3,129.9H64.1
	c0.2,1.6,0.4,3.2,0.7,4.8H92c7-56.7,71.3-62.9,71.3-129.9C163.3,59.2,160.6,40.2,145,26.6z"/>
<path id="Fill-3" fill="#E3BB88" d="M82.3,192.6H55.1c-0.8-4.5-1.2-8.6-1.2-12.3c0-44.4,50.3-65.4,50.3-116.4
	c0-30.4-12.4-41.5-30.5-41.5C53.9,22.4,44,38,44,53.6c0,12.8,6.6,25.5,19.4,30c-4.5,11.5-14.8,17.3-26.4,17.3
	c-18.9,0-36.2-15.2-36.2-43.6c0-25.9,17.3-57.2,77.4-57.2c67.6,0,75.4,39.9,75.4,62.5C153.6,129.7,89.3,135.9,82.3,192.6L82.3,192.6
	z M67.1,222.7c18.1,0,33,14.8,33,32.9c0,18.1-14.8,32.5-33,32.5c-18.1,0-32.5-14.4-32.5-32.5C34.5,237.5,49,222.7,67.1,222.7
	L67.1,222.7z"/>
</svg>
